<svg width="194" height="282" viewBox="0 0 194 282" fill="none" xmlns="http://www.w3.org/2000/svg">
  <mask id="mask0_25_9" style="mask-type:luminance" maskUnits="userSpaceOnUse" x="117" y="126"
    width="77" height="27">
    <path
      d="M123.181 133.488C146.425 135.57 147.957 130.614 169.748 126.813C169.748 126.813 192.031 128.517 193.772 135.077C196.424 145.061 175.473 152.708 154.093 152.133C140.087 151.756 126.523 146.608 117.102 140.612L117.173 136.735L123.181 133.488Z"
      fill="white" />
  </mask>
  <g mask="url(#mask0_25_9)">
    <path fill-rule="evenodd" clip-rule="evenodd" d="M117.102 126.813H194V152.164H117.102V126.813Z"
      fill="#9900CC" fill-opacity="0.768627" />
  </g>
  <path fill-rule="evenodd" clip-rule="evenodd"
    d="M121.666 135.476C144.319 122.09 144.791 120.53 162.348 102.296C162.348 102.296 183.589 85.2564 188.258 88.991C192.926 92.7257 188.258 103.696 188.258 103.696C188.258 103.696 181.489 119.802 171.685 127.038C161.881 134.274 131.304 146.645 131.304 146.645L118.232 142.677L121.666 135.476Z"
    fill="#9900CC" />
  <path fill-rule="evenodd" clip-rule="evenodd"
    d="M78.4054 211.705L83.9773 212.548L83.4201 237.462L88.2491 262.536H93.6557C93.6557 262.536 96.2354 274.608 92.1494 280.923C92.1494 280.923 82.9056 280.261 77.6879 262.205L78.4054 211.705Z"
    fill="#9900CC" stroke="#9900CC" stroke-width="0.755906" stroke-miterlimit="22.9256"
    stroke-linecap="round" stroke-linejoin="round" />
  <path fill-rule="evenodd" clip-rule="evenodd"
    d="M126.276 212.182L120.704 213.712L121.261 237.3L116.432 262.374L110.513 259.652C110.513 259.652 108.446 274.446 112.532 280.761C112.532 280.761 120.855 280.1 126.073 262.043L126.276 212.182Z"
    fill="#9900CC" stroke="#9900CC" stroke-width="0.755906" stroke-miterlimit="22.9256"
    stroke-linecap="round" stroke-linejoin="round" />
  <mask id="mask1_25_9" style="mask-type:luminance" maskUnits="userSpaceOnUse" x="0" y="124"
    width="87" height="30">
    <path
      d="M79.4438 133.108C53.3528 135.066 51.7158 129.486 27.3487 124.872C27.3487 124.872 2.34215 126.422 0.283567 133.747C-2.85011 144.897 20.5118 153.808 44.4887 153.51C60.1962 153.314 75.4856 147.763 86.1435 141.192L86.126 136.846L79.4438 133.108Z"
      fill="white" />
  </mask>
  <g mask="url(#mask1_25_9)">
    <path fill-rule="evenodd" clip-rule="evenodd"
      d="M-0.000244141 124.872H86.1433V153.517H-0.000244141V124.872Z" fill="#9900CC"
      fill-opacity="0.768627" />
  </g>
  <path fill-rule="evenodd" clip-rule="evenodd"
    d="M85.6801 138.835C60.2824 123.828 59.7529 122.079 40.0691 101.636C40.0691 101.636 16.2551 82.5319 11.0212 86.7191C5.78719 90.9063 11.0212 103.206 11.0212 103.206C11.0212 103.206 18.6101 121.263 29.6014 129.375C40.5926 137.488 74.8744 151.358 74.8744 151.358L89.5293 146.909L85.6801 138.835Z"
    fill="#9900CC" />
  <path
    d="M131.68 38.8581H69.7554C52.4637 38.8581 38.446 53.0223 38.446 70.4948V102.522C38.446 119.994 52.4637 134.159 69.7554 134.159H131.68C148.972 134.159 162.989 119.994 162.989 102.522V70.4948C162.989 53.0223 148.972 38.8581 131.68 38.8581Z"
    fill="#FFCE38" />
  <path fill-rule="evenodd" clip-rule="evenodd"
    d="M70.7923 46.413C77.0162 45.2828 89.2709 48.7155 101.441 48.7241C117.812 48.7358 133.369 45.6319 136.478 46.842C139.587 48.0522 156.792 57.4817 154.571 92.9106C152.556 125.043 128.333 124.245 128.333 124.245C115.759 124.108 78.0431 123.943 66.902 122.939C55.7608 121.936 48.5233 111.693 48.0716 100.16C47.4241 83.6328 41.8841 51.6625 70.7923 46.413Z"
    fill="#9900CC" stroke="#9900CC" stroke-width="0.755906" stroke-miterlimit="22.9256"
    stroke-linecap="round" stroke-linejoin="round" />
  <path fill-rule="evenodd" clip-rule="evenodd"
    d="M83.2488 69.728C84.8061 74.1904 84.563 94.528 83.5642 94.5192L72.2027 94.4183C71.104 94.4086 70.4982 77.6476 72.2686 70.2444C73.6245 64.5744 82.1037 66.4474 83.2488 69.728Z"
    fill="#232323" />
  <path fill-rule="evenodd" clip-rule="evenodd"
    d="M128.493 71.4299C130.05 75.8923 129.807 96.2299 128.809 96.2211L117.447 96.1202C116.348 96.1104 115.743 79.3494 117.513 71.9463C118.869 66.2763 127.348 68.1493 128.493 71.4299Z"
    fill="#232323" />
  <path fill-rule="evenodd" clip-rule="evenodd"
    d="M72.9368 18.5041C74.7095 20.2768 81.9612 21.5656 87.7623 37.8414H89.8572C89.8572 37.8414 87.6012 24.7887 74.3872 17.0537L73.7427 11.2524C73.7427 11.2524 77.4489 6.41834 75.1928 3.51757C73.8066 1.73511 70.571 -0.157548 68.7051 1.88678C66.4536 4.35176 59.2148 15.5824 59.1405 17.7354C59.0621 20.0117 59.5259 24.7071 64.9371 23.2472C66.37 22.8604 67.5678 20.3585 68.4249 19.1486L72.9368 18.5041Z"
    fill="#9900CC" stroke="#9900CC" stroke-width="0.755906" stroke-miterlimit="22.9256"
    stroke-linecap="round" stroke-linejoin="round" />
  <path fill-rule="evenodd" clip-rule="evenodd"
    d="M128.634 18.6443C126.861 20.4171 119.609 21.7058 113.808 37.9816H111.714C111.714 37.9816 113.97 24.929 127.184 17.1939L127.828 11.3926C127.828 11.3926 124.122 6.55857 126.378 3.6578C127.764 1.87533 131 -0.0173196 132.866 2.02701C135.117 4.49199 142.356 15.7226 142.43 17.8756C142.509 20.152 142.045 24.8473 136.634 23.3874C135.201 23.0007 134.003 20.4987 133.146 19.2888L128.634 18.6443Z"
    fill="#9900CC" stroke="#9900CC" stroke-width="0.755906" stroke-miterlimit="22.9256"
    stroke-linecap="round" stroke-linejoin="round" />
  <path fill-rule="evenodd" clip-rule="evenodd"
    d="M107.931 98.9159C107.931 98.9159 110.918 99.4174 111.028 102.625C111.137 105.833 110.36 115.441 102.154 115.823C94.4956 116.18 91.947 109.859 91.947 109.859C90.7727 108.008 90.6976 104.124 91.4566 101.306C91.6664 100.527 92.7075 98.6573 94.2782 98.6839L107.931 98.9159Z"
    fill="#232323" stroke="#9900CC" stroke-width="0.755906" stroke-miterlimit="22.9256"
    stroke-linecap="round" stroke-linejoin="round" />
  <path fill-rule="evenodd" clip-rule="evenodd"
    d="M71.4368 205.187C71.4368 205.187 104.205 211.812 131.892 206.084C131.892 206.084 131.322 210.393 125.68 212.411C120.039 214.429 114.397 213.283 114.397 213.283L111.416 216.677L92.0626 216.303L89.3936 213.633C89.3936 213.633 72.8334 213.355 71.4368 205.187Z"
    fill="#FFCE38" />
  <path fill-rule="evenodd" clip-rule="evenodd"
    d="M69.915 194.769C69.915 194.769 69.6006 202.11 71.4367 205.187C71.4367 205.187 108.597 212.074 131.892 206.084C131.892 206.084 133.754 197.769 133.117 195.435C133.117 195.435 102.565 202.21 71.3628 194.47C70.898 194.355 70.1492 195.003 69.915 194.769Z"
    fill="#9900CC" />
  <path fill-rule="evenodd" clip-rule="evenodd"
    d="M76.0439 187.697C76.0439 187.697 70.7717 194.123 70.0269 195.169C69.2822 196.216 120.784 201.353 133.117 195.435C133.117 195.435 133.678 191.227 127.451 187.197C127.451 187.197 95.7996 193.512 76.0439 187.697Z"
    fill="#FFCE38" />
  <path fill-rule="evenodd" clip-rule="evenodd"
    d="M85.8217 186.324C85.8217 186.324 76.5883 186.079 76.0774 187.545C75.5664 189.012 108.075 194.017 127.428 187.79C127.428 187.79 128.014 186.919 125.178 186.684C112.875 185.662 98.0235 185.448 85.8217 186.324Z"
    fill="#FFCE38" />
  <path fill-rule="evenodd" clip-rule="evenodd"
    d="M78.4054 213.874H83.9773L83.4201 237.462L88.2491 262.536H93.6557C93.6557 262.536 96.2354 274.608 92.1494 280.923C92.1494 280.923 83.826 280.261 78.6083 262.205L78.4054 213.874Z"
    fill="#9900CC" stroke="#9900CC" stroke-width="0.755906" stroke-miterlimit="22.9256"
    stroke-linecap="round" stroke-linejoin="round" />
  <path fill-rule="evenodd" clip-rule="evenodd"
    d="M81.0297 231.056L75.9794 239.333L77.8031 263.744C77.8031 263.744 89.7821 273.338 94.8325 262.536L88.8859 236.948L81.0297 231.056Z"
    fill="#FFCE38" />
  <path fill-rule="evenodd" clip-rule="evenodd"
    d="M123.397 230.635L115.821 236.247L110.35 259.815C110.35 259.815 114.787 270.618 126.431 263.744L128.868 239.053L123.397 230.635Z"
    fill="#FFCE38" />
  <path fill-rule="evenodd" clip-rule="evenodd"
    d="M65.2374 145.072L68.7518 159.004C68.7518 159.004 65.2378 157.889 64.0303 154.824C64.0303 154.824 61.7187 153.708 54.3302 159.249C55.1705 160.09 56.3655 163.509 54.3842 165.86C52.403 168.212 39.9761 193.872 39.9761 193.872C39.9761 193.872 39.23 209.15 39.0453 209.612C38.8606 210.074 34.2426 214.23 33.5037 199.36L31.8414 201.022C31.8414 201.022 28.0545 210.166 28.2393 216.17C28.424 222.173 23.7135 209.797 23.7135 209.797V206.564C23.7135 206.564 21.6815 198.067 25.2836 189.016C28.8857 179.964 43.4758 158.46 43.4758 158.46C43.4758 158.46 46.5209 155.234 50.0828 156.841C50.0828 156.841 62.3751 149.577 63.2829 150.694C63.2829 150.694 63.7671 145.356 65.2374 145.072Z"
    fill="#9900CC" stroke="#9900CC" stroke-width="0.755906" stroke-miterlimit="22.9256"
    stroke-linecap="round" stroke-linejoin="round" />
  <path fill-rule="evenodd" clip-rule="evenodd"
    d="M142.183 145.996L137.968 159.545C137.968 159.545 142.183 158.813 143.39 155.748C143.39 155.748 145.702 154.633 153.09 160.174C153.09 160.174 149.745 165.296 152.01 167.811C154.275 170.326 167.445 194.796 167.445 194.796C167.445 194.796 168.191 210.075 168.375 210.536C168.56 210.998 173.178 215.154 173.917 200.284L175.579 201.947C175.579 201.947 179.366 211.09 179.181 217.094C178.997 223.098 183.707 210.721 183.707 210.721V207.489C183.707 207.489 185.739 198.991 182.137 189.94C178.535 180.889 163.945 159.384 163.945 159.384C163.945 159.384 160.9 156.159 157.338 157.765C157.338 157.765 145.046 150.501 144.138 151.619C144.138 151.619 143.654 146.281 142.183 145.996Z"
    fill="#9900CC" stroke="#9900CC" stroke-width="0.755906" stroke-miterlimit="22.9256"
    stroke-linecap="round" stroke-linejoin="round" />
  <path fill-rule="evenodd" clip-rule="evenodd"
    d="M70.3578 164.658L74.5073 175.675C74.5073 175.675 71.994 175.371 70.4807 173.224C70.4807 173.224 68.4789 172.794 63.7972 178.481C63.7972 178.481 65.8076 182.918 65.5672 183.888C65.3265 184.859 59.1985 208.019 59.1985 208.019C59.1985 208.019 61.5001 220 61.4439 220.393C61.3878 220.786 58.5922 224.877 55.2168 213.492L54.2419 215.094C54.2419 215.094 53.0305 222.894 54.3052 227.512C55.5799 232.13 49.5967 223.426 49.5967 223.426L48.9874 220.921C48.9874 220.921 45.811 214.718 46.8967 207.025C47.9823 199.331 55.2362 179.915 55.2362 179.915C55.2362 179.915 56.9882 176.842 60.0514 177.415C60.0514 177.415 68.2089 169.469 69.1232 170.164C69.1232 170.164 69.2721 165.156 70.3578 164.658Z"
    fill="#9900CC" stroke="#9900CC" stroke-width="0.755906" stroke-miterlimit="22.9256"
    stroke-linecap="round" stroke-linejoin="round" />
  <path fill-rule="evenodd" clip-rule="evenodd"
    d="M135.992 165.775L132.204 176.309C132.204 176.309 134.717 176.005 136.23 173.857C136.23 173.857 138.232 173.428 142.914 179.115C142.914 179.115 139.78 182.428 141.144 184.522C142.507 186.616 147.513 208.653 147.513 208.653C147.513 208.653 145.211 220.634 145.267 221.027C145.323 221.42 148.119 225.511 151.494 214.126L152.469 215.728C152.469 215.728 153.68 223.528 152.406 228.146C151.131 232.764 157.114 224.06 157.114 224.06L157.724 221.554C157.724 221.554 160.9 215.352 159.814 207.659C158.729 199.965 151.475 180.549 151.475 180.549C151.475 180.549 150.144 176.563 146.66 178.049C146.66 178.049 138.502 170.103 137.588 170.798C137.588 170.798 137.078 166.273 135.992 165.775Z"
    fill="#9900CC" stroke="#9900CC" stroke-width="0.755906" stroke-miterlimit="22.9256"
    stroke-linecap="round" stroke-linejoin="round" />
  <path fill-rule="evenodd" clip-rule="evenodd"
    d="M40.8099 158.793L24.8176 182.361C24.8176 182.361 23.6952 199.756 40.9501 194.846L54.5578 169.735L53.1549 157.25L40.8099 158.793Z"
    fill="#FFCE38" />
  <path fill-rule="evenodd" clip-rule="evenodd"
    d="M166.997 161.959L182.989 185.526C182.989 185.526 184.112 202.921 166.857 198.011L153.249 172.901L154.652 160.415L166.997 161.959Z"
    fill="#FFCE38" />
  <path fill-rule="evenodd" clip-rule="evenodd"
    d="M82.6965 134.159H123.609C123.521 134.105 123.204 137.623 119.837 138.721C111.019 141.596 90.9162 145.874 82.6965 134.159Z"
    fill="#9900CC" />
  <path fill-rule="evenodd" clip-rule="evenodd"
    d="M80.0443 160.607C79.1487 178.35 81.3432 185.963 98.0134 188.659C107.481 190.191 118.077 189.106 125.322 179.59C134.743 167.216 115.901 143.874 80.0443 160.607Z"
    fill="#9900CC" stroke="#9900CC" stroke-width="0.755906" stroke-miterlimit="22.9256"
    stroke-linecap="round" stroke-linejoin="round" />
  <path fill-rule="evenodd" clip-rule="evenodd"
    d="M74.9115 136.92L65.2953 144.934C65.2953 144.934 72.6587 179.022 78.4153 182.365C84.9575 186.164 89.4968 168.656 102.742 165.838C111.47 163.981 123.54 183.108 123.54 183.108C123.54 183.108 126.14 187.008 129.297 183.108C132.454 179.208 142.111 145.782 142.111 145.782C142.111 145.782 137.641 137.35 134.497 135.754C131.353 134.159 128.74 135.754 128.74 135.754C128.74 135.754 105.344 147.034 81.5 136.556C78.0997 135.062 77.7591 134.547 74.9115 136.92Z"
    fill="#FFCE38" />
  <path d="M107.579 216.384H96.2722V219.681H107.579V216.384Z" fill="#9900CC" />
  <path fill-rule="evenodd" clip-rule="evenodd"
    d="M94.8361 218.155H108.952L101.894 226.529L94.8361 218.155Z" fill="#FFCE38" />
  <path d="M103.477 141.014V165.711" stroke="#9900CC" stroke-width="0.755906"
    stroke-miterlimit="22.9256" stroke-linecap="round" stroke-linejoin="round" />
  <path fill-rule="evenodd" clip-rule="evenodd"
    d="M153.743 182.159L161.062 203.798C161.062 203.798 159.577 216.314 146.848 209.844L141.757 186.508L145.363 177.704L153.743 182.159Z"
    fill="#FFCE38" />
  <path fill-rule="evenodd" clip-rule="evenodd"
    d="M53.5779 181.098L46.259 202.737C46.259 202.737 47.7442 215.253 60.4727 208.783L65.5641 185.447L61.9577 176.643L53.5779 181.098Z"
    fill="#FFCE38" />
</svg>
  